<mxfile host="65bd71144e">
    <diagram id="HIP3nbAZw_EuaXWnEj3U" name="Page-1">
        <mxGraphModel dx="744" dy="428" grid="1" gridSize="10" guides="1" tooltips="1" connect="1" arrows="1" fold="1" page="1" pageScale="1" pageWidth="850" pageHeight="1100" math="0" shadow="0">
            <root>
                <mxCell id="0"/>
                <mxCell id="1" parent="0"/>
                <mxCell id="7" value="http://ics2o.mths.ca" style="swimlane;whiteSpace=wrap;html=1;" parent="1" vertex="1">
                    <mxGeometry x="40" y="40" width="760" height="480" as="geometry"/>
                </mxCell>
                <mxCell id="9" value="&lt;font style=&quot;font-size: 19px;&quot;&gt;Volume Of A Sphere, In Js&lt;/font&gt;" style="text;strokeColor=none;align=center;fillColor=none;html=1;verticalAlign=middle;whiteSpace=wrap;rounded=0;" vertex="1" parent="7">
                    <mxGeometry x="250" y="50" width="280" height="30" as="geometry"/>
                </mxCell>
                <mxCell id="10" value="" style="shape=image;verticalLabelPosition=bottom;labelBackgroundColor=default;verticalAlign=top;aspect=fixed;imageAspect=0;image=data:image/png,UklGRug4AABXRUJQVlA4WAoAAAAQAAAAYwEAYwEAQUxQSNIgAAABGUVtG0lKm98Of8J7UYjo/wRA2VVp1RxajQE12jZAEoDFrU2BEu6Zlxm9tFX/pg9z4Cho24ZJyp/1LoSImAAwcUz9SAswqaZxH2F6pu2eYdy2jSTP0X91U8QUEeS1926UxbwiJkCB2zZKdxMd890X7DgA5MiRlAjUigfs3uUJexTkC/oUH9DEqf7B0KTX1gpirPbGJH+wimA/4ATRL1hRaKD5gjxp6kIYzcqIFJGRcRIRAUEAkLgNZpMiIIIadMcDMLm27dqOo4ODjQuCYPowL70nBUKuBV4N8KYHmUXVVBJUzp5kLbMx3juC+CDkFREiLjZu4Z615t7vfcZnNSIk2rZVJRSVIgIuzj7naN3HB6isAPLu6VPnHronzj24NyOG4Nydc3t3cKP7YwhWi+nlC+PZ86fDF7Iy3Ln9YTz2YinZc76GpsV6OaobjSN6+eQnn3318gbg79yNVVgv3332/HNv1Dp2+8MnwRhtNwibalvWjRGaLp/8xg3OoXMwh8kNvEH5TdvrMfRe79eeXq6SdI6/zE0YpiGK4pBjZM5+1XG1X/nk1z53jU4fWLTAjDIzBxyNJJsM6YTbL/sLn/3C9y9NbV5dfuYSoqApTw3WsL0Ind2aPtdT5EckHUYNZQTTWIK155vV5ZM/+FwrbCJFtUh6j4zGm4BiTUmENx3cm/6q8/Ry/CRJvcizISBO6IDST1FCd3v6SqP/8Uq0VE1BM1O5Chr2KdzUT/bLd+vb6/FSw8bGj2RNW0HD8NQmhE2X3ghfOb/ilC36LL32Pt+oNI2sKrEFc0PrEy4vQud0H6/2Jc8coBRWabL1oR/ym4xyef2rjmF3e4JOjYABuQGAjShQjwD23XmnsOPlTrl/HrPQVHlMSCCaIwmoDMJifd4h7O4j/UGD36WYMYr+g2NWDflIQfz6vD/YZOWKxihEjgSSIeGZmSkp0To9Uf2gw2DHf0m+wXeaau35YhQlMc5S2Bc/9Wrn4a8SsLQColmp53GOAghSQBJy9pHKiF8tOWxZMsa6ZKPDdDOjmP3qQK8lWchypS88XXuOg9Qc1dsGFPOM8KskGBsZBnOQgCj+0vUf0Ni/mDDlz3hU6YRER2SR1Xy8NPLQayr1gMXKp0NNTI5AUqOc1ffMITLdJTzikLOVolIkto8NhSmioQ4oz0pXXQASQAhC2rB+qSKVTr9+7/atbcbgCkJF48c/l4MOQtMwrx+VzGLCn//itn0rGspe3YAqZiIqOvwSAenMRk8q/vkfR9efH2+oL6cClcpVVR9ABRSBNFkYAkj3qST15Z5nbexKse1uRRa0zx98gYxQDpI/akUF9rF8qhZg692PJAhkhn2172fFTx3mqRo0zDCnQqTOZJJmWwr3D5lCXqnn8pxMdCfObptt1NPPXsykGzdWu7HYToKqyTwIJq414sJn8VenHsO93ncitE99aNJVuEY0pSsWqHNb0km2K9WhPrtQa4pSpd032cI1jpZezBlIkiNNabgfU0aTCKhWZ1+lVlMoNZ3TUG3eiruucblGAdJ5nxg4NntuMQl3pypshHC3nF63YzVmFRc0GSpa7Y6JDzEJbCZ5I2wGmYmNRlzYLdGfU2IgisoaRFNaqRBcxUpThwgzfISpPInn0iePedlL71mYXzdWmTWmItoOcTOKH5sr1MkJJ56qQKDnmB9xcDfsn8WgjWQKNmYQq8VLFBkJEANZpBMfKHCkHNRtfadZR8ehX2+OShQPiE0G9YLG2URxhgq5CqAfNLgV57b+dcGH8bnKMbDrQQ2rGgmTnTsOm2xFg28qLpYUmYVz+bafZ/gcQwEzOdC54RQKhCguGlFqR5plqV0UC5sd/C1x7kYZ6Whk1AMvpyo2TmZYeo8UUuofESB/FCrbIgfRgO2rf94JaJarTZSdDauWloUaoPybyYQC94I9q5/CHOhoeZoav1gKwCEdqmwkJzYuQQwuXup4APt4vkCJHpNTUJ7jDCDXuEgy0qFsXfNlERbjaMju4yj/v01H/Ahq3awTDV/MKL/QHwVehhz6DvCTnyo9FnE+5Hac3WrZE2rRSPc67RU34Q2up5LikIleELaGGJXeADAN0gEbV3ssA6daN31s7c/WQFOGl51+/SsCJTymglQMKxhe4235ShEjkjhCSsp5EBkAZqsKc3ogOYotKKooiYZvD1PXwF266hLDFLmFj9vpCfNTgBlAOEdRcwb3hr7h0g+Nra0jVOdI7FbY30Ou+rs1dI/1mHIvUYRgPszR/cOh/5LEzC9y+jQElxVy2NdMmqTAspAKA8arxIC78ttwRKVyknyliK51UB+jgV+lpueaCRFyCIoyGnoIQ+fE1Bm4oywRbu3RTsU0HOggrThzcRwjrQjoWWLFSCzgwDUWLgVNOr+dDpPlC6ZQQasOOTo5PFsnYrpmyJYeM2GSvuVOlPUclI7rewKd4lqhuPLyxCNw8HQ4u2MXy6tWPPUE/q2bhVDDHHbTtesmeXyDIAd15osIE6R4KeeOGEZnEUN7AZC+/RWWVYMHPgeG6pKutDIRQaCOUXRWDceE04IQUqifrMyhMJU1V/ZiBf6OitvVklGPYunsSrMyi7JA0F3tN1moF345XRKEWRBD6FtWHnGFG6vO2eAtd1uxgwtEJXUophZAp0zWIBxEwj9QOcDA8nuI9m0ZmH2eBKh3u21qv6h+j9JVGoKUj/FjRhwIiV93vrJ5vlyXAL1SKl52lgmkHI2IC3wfVg5AmuX4GHhdA2i6jIJ3puoCqdJx6661vYDF8fzrU+pPq3SQ6BLVn6XruFLQoKzswBHo7t+svFMKHWTZpJZtl2dBajTIcmMg+3nEP5UA5MSdkTtvPXBoNIUO0rSzUYtvHcVMp6aq1aYi7y6Us4UzTuDd1rYOg5SNLRbQs8rHD8BrL3Is75URkWbtTCXZZScNq4Boac90USeZCGHc8RbuCwsPKV4o6jyrga0BClT+t3etvRu5MOymFedAAget8I1W09l0JlBzInIIC95zGitok+cTiclSVBLoRltxPlPM+6HpM7GQB+xb965uXdiZUMSP4UbyDnn39z7DyjR+B3TF0KFlBDXI4V6QRQhrJMmXmsl2OEhXNJ2tGK+04eufYjdPzfJsaytI2OvQe8nEJMQONTxllXC8MAz4PUTjbhswGCQt3UJheP2GiXMrmy0HUUy/h05aWdK+Yp4iNj7bdg5hxWgmfDD3tqlKqugJbGGEsHCPY4rEqckvFMRzh/ESdBx0CgjqZG73BlcqyoEH6Lbrget2FGrFSFh1+Pjwb08z66hZp3V2/jdapqgjlqzFznM32sdjkwGIDGWqOOlflRoi5TCVzZFw83D8AYmU7PwfYAb3aXNb9PGwT++1eb8c0VQliuzGaAEHND9cowHZdOWuhdxA/Z4bEuxNIXHuYfQVDVEl8rAFhILozWK6Wx7FxmT0ocbEnFFDyzyjiL7mRvadk+E8Mq6p+okQPBun0oAm+46Wgv8ADbrguGEMYQYg0qDGSdsgIR/69UGGHWTpYrd3K9va1SfCz4SybWQoTDqwKUZQQqqhlCZ9EtPOHAK+PieIFMWm27zZQcEaMDKk576NQkm45zhqSMwAtgXyw/COSdUPlqylG7wAyhytpoqlUWjkObqAM82SVc5IY+huhqFZwJhUeeFNvmF6CbRnUssV330Ws6oChSXZqoSupAVAKLuj8HcfaLyGuqRfRVPit0WeDe0OCG7rdIH25r6oQgFi308QCcSiCzpM9Fx4/qhM2kR/fEG/dmQU3+sWhWYO0HFr7d3l0RcCpaZlHQZyACFThtITEt2sIztbJ21CFRlK4xIIbXqFKTGfY0CBJigRDUvB2zza4QJZ3H2BO0xuxHSgxTHzkxpr7jLSuMh3raTatDhRbRaed99si/fIAlcJQnB3lpAWI/K7ntSP95qUXYXqQMwN3BQ7tnu6nLsMXxFhQw0vQC+Hn3RG3IHAmnlsFMuw4IqHpbjXxeFNNBme+NPvZhYvykhXI1CWzf7YalOtw+Tx5/CoFdltfxQ6JuyNGCAiwTuSib+6Ipv4fuSwBO8GhOIpRkpR2xcnBJPwuQfgfi5uI91gPemEWanF5LZaPwBCVluRT0Lk7Tm1qXNCLO02TxDDavqNcQO2EACFrQXxj0J1tAoYF+hI0/lQkdvV8EmVk+UDwmwzL3quOb9JGgkIm4ZEoQvGWAQK6QdsJgCezqkhSEMjGnadlGjeFq0u6F/SH6rVNmiHgnEutgo7g6CoOp7LwflxUc4J4ZBOECTp2rKmAKpJuarQxbvO+eHuJpYysaRbXDw8q0+Cr4fiIXgo0+b1gjqKSIIMiLEEN5K5E9To4csSwJz5v09tJxtmHb5TUiMpKGLQBaST30ULORRkL84w06H8tlxhMAKCUeQbFu/hB1peGLUbb0chj55F9a6ay9lFUs9anLsrf6g3iUrNs6Tx5doaQsgFprgLXAkjsfugGHzvc1KO14i9i5+3X5j/1fAhCegUg8hqVzOt6e/YHaKQlCz+T1tdBwRcZnSCxnCIxUkp+L79b4fsmNKysxmZoQiOGDI2TRJjrQHSlN/IMlnwHeY0AJSe5tLjN9FxacX3LmrtvTLkDtol6zjI+NWpEcQACOBowMWXKDSTgMocjUUGWDIRiUQUrf9nNwmMujx2Bwct+wZO08ApJ3vDXjNOA9Rxhq3ZLo0j62McUbQe20kLyVz7WFMRByhbq5jmhttWBRIS/IdytXcEBG5imPFaYcXXbH/wbVR32gFSx2yI6M/oYSiCfc1Lv+1TgaeUxOiECyR1HbPAko5WfMVmiem4uTBsVw6p5E/dhuocYZW29e3H1w1dLw+XykpkPTTVDGhQZPENeyZPNdzBiWAb25V5KJaiESBDONDIGhR8BQWKM2gK+RJ4awjaO+Loy1+b7WIAAJpw1yaHQcsmSxDwPdMoo4g3l2nbN87qnYf8Yk2RuEAoFXH0D+2ZnGjZbffVXjjMRP0AoGANJ5qzRNwtGgWe5Mf9GDQT1w4tjtAZGvHTQvVxenF0uP3AxeteDpTif2Q8DwTUJew7QxfpZjpgrVzAGgq/oBFLnwffhX2wfPbLCNcDpZwUKUG5P5ykSGeRnO0EyR6R4HuPEejCaXkpniI+UH4MTrRfZZ57kNFsehS2086VTBODIAVYx44g9f1shq+nKDmCltOIS1ljEBQob07QCQ6tS5x7XoyjcNyCba/6DE4aS0+bqcgtB+mWxF8cA11iSC2MYumZVZkVD8+rLOavDd6AMOEKFU8hI/mktM9qGTHKq2XxRF47SBUgGdVY9w12lQepnq/48jmw2ATrFrHU0i7KNDRLvWbFWTyRU9BAUCSU+mTFgoFkiLB4ma/ZrBbFk3TVtNVyDfqtWUQ2oWcvoFb/DbmikL+1okAA8AJgYRKv0uGrA0w3R7GLYFtzfsnBss817SHBdLavcQeJktSie39ugdyFLpTpJNIvDQsKAOw1noIzuV8Of4ugqGKnUeFY+vK5WeNjlQxErh6LYrALzF4yLB/QWWSDAsJt/mkmtz1IT/fnwtx4s9RBbvXIooK6nEQJtU1v1TvAAZHoD4JFOpQuv3FjQEQRpsSZ3ObFhdkO99NiUPXUF6WZSaMAoH1IbeNUkyBXeAlIW1ks/4pHcaTEPuts+WpZm/qYFWdtz31gTfVL/xVKvvjwl00TahN/8G6TcxoxmBdV+5OEvcsu98C9V4lJOevEgTHMkFltYDjw+p+Bp3tEKmx0HoRYvcNUDlneQXnLutMiqLhHdEjAeRhzPt+ZyavsrxTRmXLYtOwXchUnQMZNHaF8Qz1BvbDHFxeyMFwBkAYpQEZq/kMWKBKemsF6x7I+FR27aWP/EWS005pHTIbXxRkEIvI8wumcgiV1gkAzf5iRlJu1OP0nBwdro1l9V4L2S7TvfWdXt7H6CrRcEIfoFkoV5YSNmM6H6o3JF1Kf9Ydy8OwFuR4ekiuZkCqgYUnXbhCkc7vA9pJsLYfqnGwSZ7JFG9dxCAkGEhMgupBKXlGPKHXTP3piNw1AIgHXlShUlGFb7SKoPcZsDWDxnsLtdJUeNsnqoXuh/ZIt81MevqbmRbcNI7nKiBMrw8ZKuNhn32Rcp3+tcwiFrBpAAlbcAjjIK0AzXz5Hx1G8p6MARVD3c+rixw99bNmktrbb2mEL9sj1NYZlO3CFubaE4QTCGQYJBSyzT8zUH9l8jVeOYNdIX8Mss/5qsIDZJZKKBWMtenXehFA4B9+JbPlye6L7/iR+drsGX+WAvKyeKyAOwX91Fr7a9BNaoSXKzBwnRrwef3A3LseYLx4FoD6uQuY40AePYweVPvaOXwkF5YfQoh95I0ixlptELX/mAaUC+71SouMXZomAj4PGA3j4tDj8pB3HgPlQv4PyR1HhMrsNJiPXTp10ie8NI3qxsAXhDypqBRPOJ/fnydDy+roUg78xCjGHh38YyuEo3Dh3ysTgBKCnkJ22lXZqWSt5Wtv5hTNdGvb54IkA5XiYX9/o/clLjKK6bCr66QaaOiRFKLmWNPbJ+ECWIa+/GKNV6r2j/EwN8eCWQ+XEcoEvl6ZVarWImD5HWS3ni/c8EX0Qyvmbl0b5v7lWfG5PpFbzirmf/fq8Kg9VjgKIhGl6JiQ3T2B8SLquQuSg6RsNnWlH/FlptP+wRT++dDdrneXh8eqRr2K+fjzG/VcyLReqNElr/ZufV8qQQYMcStbIVp0oefF6iNrbH4z2mdXwejyipSuOxvLxwZiEM0c08ooaBNboGQVPaVae1z/0Bp6sVsGBpJCfGI2yq/HOHRHPuxxWc5diEBJztZwkRnC7GjnA9pTSCU5XF/sZyq1LP0slCVmojcnrye+NuWJElY9Hf9Ao/0UI22JNRVB3CJCxcrBgFRddXyWtVtPFs7vVB5luzgBNOx3AzOnlyXuzSvZjNMrxctei2g9UiT4NkWMtuKdnxsdEPQQ5Dc9MtCATmwHDBUxa7QFyn3yPrS9gaZTk8YkJKONV7seYg9XScswCJAZMBx+EMdgF+IbGCUI6q4iG52C0ARXpp2FSVY9JqT//rLGi/1FTHPmb7401n/w4tflaQMepFrNPoWi9fNq/2W3HySdNaqqk3CXJUjHUmusCKEf/ZP7J7NxQwVYnZCwulBDEm+MsVKM1KkCGi938BH6VUe+lsPDMJckHYl2X+TQ5zsMVPPVHnX1tBclkVGuoFUgYTtKqucoP6auY75OFFCFmDLdsRtEw4r0z84hDHeXxMV7uZS1SVVkfDAG+KRRXqUrluxkPRciggyrwNV7L+cna7l6Jd/zZRDiPGRf4IrjnGVEbuEKMlP7DWmi82UzZwniC1A/Goj3y2KJvktmPcRDXhFDt9KNGr3QcehXT5izx27SsH732Zf7B2TePhUWMIQSqHGlW5yYkioqGUZhsMv98kzJ3rREglDr9RJyVwcJ9NdDAvz1bv8+pIwMDaJWuUXXuKGrIgDoHicx1lvn2miC0/Qb2nlTz0WlIMh9/oc5LDXw3Ehcop653pqPsQRUiKGgU976TSfy0zTgHlkDNkPTt/ay8/oNGEXHKnNsTVI40aWONYyA4yKqW3j7an9xQtw0/pE+Xo2nwU8F3SsP9ZAWVVBomdquKosSxahwjhc4M5Kvu1B8QtRCKM5Kny2jbMKvyoxypxtcL5A2XvxBFPijrHGGcH68VrRm0lrgfKVou0PcpGxqtHv72GY5XhZLWfTXc5uW6gdI1BiCM4mMcxeeYD4h8R6sUhntAXfvtw42oTE9i2BQZ8sdLd06x+nHDSXF9g7hALfMgOYcTqN7FRyEOhqtaWl8h8zYD4WGF30+ejCePSb937i4/KoOmaGigYFQ41cBKCG0BGLUPTP4oBTHdb25COBpFTQzCGMaEWgvpaL7HyvJ15fETMeBj+MOQFJE4ZlzJkiUMAEm602SULa0PvYnh3pvJAJKGJZpQZ3yzPfCTimbWi7P2GMx76seKCoPqJ9t6HQqkVKRYsj7CVYhEci7YZssc993GInlxrPhcifmsYnv8iO0+WEHUE0S+uWHFJ6goxH1+xhSS2yBUptTQ9VTwBwNmpm2gX6mCLGDx9kDIG/aVaClhiKAWLFjnN+uJGoE1Q9rbt7zGE2aac9vYFB+N4RUn6HQQkJu01GPHAqkYTg5W8yrD31AUhMi6NNniA8q3FSv1VE+JLgrU14bY0HMUYpomGc4TWUiqvqHSgZqx1lKL7xYpujnVNW0F41RCHYKYZYONRFouERJF7YOFOw/Wk7RuVGCozaRC8h/5Biyslmtm0sBd1ERWIUbjkrIxISQEUxLxflypgb6YeSt3zI+EYiLhEqpqqCpyDpiCdItSm8Bxa74oztTA6UjPTBmGVu8/KiDJS/sdNLmX/aOM2ieEhDtowxUvFrSoZcFxtGJK8C4znCEzIEJjiiB1+gQsbN/ljwca1lt5puxw0uWt12YhhosdEqI3UFOwLo5krOQRS8+3T5JJcYFq82sq1XS3fOtiOmKR++EwFVsaWIWniYUCBfyUSe+mFTNMzVulqwA/iVLSCoU/JwIUoIImLdnhfFbApNhszllXis/qBxzUIOHl2yEMop/MlGVfWSTWmHE4xFqTlTQXs70OTdwF5o7d35HtSlZyiVSLyMBEJmURHaOoKTetERyzWqCe34EcSuYawVSz+MtaMfC8MEpE4V9LrZ4/moZ5X/f0hRsdJxsSZpbg/QchEm3uTvsKFz4bOqekw300LNjgFkhyAEYmVtp5U4GI5NwAxgbhYc5ByoasbVdON24gQ5xHtqDkPMmix7ZAZGqdtrwI0QFNsok2Sxw8bUsxhlvKBOl2V6bQaGrgL6S1zSGAMl2v/0D6vyAV2ZkGxZYXcNGmNmVulkj+kSNbVn8o6b1n8zI6TilN7zyPXLog+ulLdSB2yU7FdllwupbZ3I1ZhUu7OwDI0RpLGCHjRvBqDtYlbd0NTvWSEpxL82BtGzo2RDiqKs20+lfSU0AWt9cYJnIe9aMUc2Tn3brSmvoG/KUzHFwbRQvODe0JUiYsvUreywpUv6p/FPdTnG1afa04hTS7RzYqsxi6ODAtra+MrfgkMsKYnpaWjKV06e5/hcjzDIpDIkbfxb30GjfrOtLqms3KTe4v3XODm4rV2KmnMGwnkG7ZorXEecomivRxu4tN9xBIQeKFnzvG/eR/6FZykyXlPFrqB4t8IgjJSXC+UD76OWTi3J0rd+qTt6nezCESddSgscTU/pVvILDutRy3v+tO6dfAvSIWHKfsW0UeUP00/cZX0oZbLmyuWrmQ6j7q12t3CdIIpGs8ferRXOfq/uH6WP4N0us9Pt8cEwEOkVQEP8tSdM1XLOutqSlW314z5AGmCqTrHp4njY23SNQ08g6TEnndfI2weSvX/um+HhRufMeMaCT+t3r1fm/AGklFREWKoomP52/ncmAeIemOm8U5DnmnIwrSE0oblTwuswVuTFhe9gNIAmMXJIWMGbkQ0nSBzRAkpUgTAr+D0YjBsIybqDtmSSGDGAvLPsQnBxSMhiFlQUw5sGEEs6WJGYE7lPohv234C4R8dO420WIrERCKbDd/ZJTQOi1ZQpSYmywJh5JfhCq7teVFjeDdF58mCBbRS4ciRRehyk7yJfnBEby39TZCK+z8+e4f7yGUGljHmt4f9kIQCs6f7jTFGO/dXNOWFuzQhhVzOLlA1mBE6GSTk9fHN7L7ptqPuRDyXNIH3m/sKEbfKHD5Iugt+8Ro1oKwk7pNogNtZT+5WomQ7ueMdZsUX0xOPjtwSIWUP2HWZdV1NbnNQH96XQL3g4FPRCVY6gXZiQQZnoSQhiAqky3u6DYjGulUnQW0+OlH6tQjRg2SgsmPIt7eRvovUIpf+bU2DRHLrJGYqan5WPzkU6RBC6dp6xcmoGwDivdhV/UhRFepfAO079KejBvm4aThulUvO+jREDPCOQYVziIOhI+jSRhpCDr9UByJBV/IOGVcNvMCe/90E/mn50WuVlqpEUtyMJl7VdT8r02U+pz40ZifTfx3Vbc8/Co6Ylrxc/It6mb+0ZKft0kryp6fL1LgS1MKE9KWFaalrXr8QcgJY9jZMilPDuLre26Tfk66WEUjJuXJO37YzpmtmJQnlytLcl+kw5c7Y3Kbl/kmB34VLAg8d8qFlKmgXvg+iRRb8WxpUMVkwC4L/bYHWlBzFvNuXpmwLqAYTVdfO1eqMt255x8FDDxZmKwiQ7U4L2LiB85eKBOo9dFGm1ZkoPyxLlrZrS5b2a02acUE6TSy07RKFifOFa8MBj8taeLLhTNaOfNFjXxltC7cR2Vt9UubdbH0ha1d+bmIsbpYlbbWryMRYx17ipen3lQy7LGnZA/2knlYZTo8sJMM14VpRVwkY1URRsa2Iv6k9qkfTSTz04qTYmkhEnmyNCsJHHmyrEeyTzuZktckGYcHaZoAEtiG9vTefuuSngqw/IlhSJh86jHpfYmMnG8V85ilLykZkdn6suMPFZeSToc9UKBgCFbeLNpWwnY7KygQ7v4nNqlP6dVo1ez8gXf/kpWn3hra/VOZVy7W6I/8Eqb8323lVHCqb4n+vOg0yQwduv+QFG8D1//fiAIKjPvPUuizq/9VLXcxuMyAlJNbLynyvuGN8YZQv4JyHBof9TAlVgQC4dxmPZAw7sQ4jCr0mFURiV1qoF5cRsn2euif8nKGgyIu+MS5XnX2iS5O2HblvKOXM8OhH1xAulKh5dwd6p1OjgybHqgEVySPaf+w2Q2hcK2YS8at6kSkYDvqNu8OJFFbBEhqUC+T3TqlhVKouhGvgtNYiqGqWL7cMDcOGmKk1GZU9Oh7ySD6YWQuzq997fpkECWx8Frd3fXNhkMUxFyqlIKZDYOohJG+uKSlVBW6uOQQzbDdVdD8KPzBQi+f0NjrL53u5XztlVJNY79yx2JMBCEJ6wFyunCaEIDF+lFOfnqmR47IYP/ozR/TfXTG+7lBCsMfttf/6NI/r1p7ntAahcY2ty6hdOSFwBNaofC62V9d647qpXeym5IGdU9hdF85onSNPYUgWi/L/8de/jH56kiQ1lRqGLubhN+M6GBPaazCePnXa3/Lyx/ei0tjRTczOU1+THm9dnSzKhynSkaGO2Jr6jbh6U+XvsSPUqGwQdwRh325dlyt0P+ZGbYHQq8Vmh4+WYiC3T6jrfv71dNTt5CxbMgXq1lYHz6ptmWFu/3hNhjq3375947qXLFegjvqc2rJClZQOCDwFwAAEH0AnQEqZAFkAT5tNpVHpCMiISl0eICADYljbvx0WVToyZj653L0lOq/jb+VvzhVZ+j/fXkwTT+svvf+3/tP5Pe9//c+wD8+/3j89foA/h/8b/zf9m/vP7D/Ep6iv3J9QH9A/s3/r/vXvd/1X9a/cn/nP877AH9h/xn/s7Af0BP3H9XX/jfuL8GX7aftb8D37Lf//2APQA/93WL9b/8f/Se6X/hf3T/Ac8LLkuR/k/5Ax4sinyv+B9AL8d/n3+03tEAH57/ZvR0+g80f6b1AOAU9H9gPxYNAP1/7DXSb9IYng5/j9W5YtbpnuMUUV3dIqRtq6ltO52/3VCk7rQG/1Xht/1A/KqqqqTQsxZ1sl53pn7bzHy3xLM3840gOdadpz/IScty1hu2R7aja9rEl3aTgw1eLRaHP8elrrtuLXmpUD8qqqsoToQtGrtGb2Q6Myg/CvFRteyS/XQM2hO3xxxjqw7vd5zmOgSS6BtQnXQNebgsQDNfAMvVfujaja9kl+ugbT0bJU+0GPmE384n9C1VVVVVVVVVVVGerEmMNxDfYxvAXB/cf1yvNAdysHJNLaF3ogKLH8jEUK4baUcmlbGRgHpCOrDKEwTNUyq0+m7aeVMXm/nvti+osvKo2ygqulg/DkuxIRZxDPYadl63bY6A8p8LnzF9FdYm8oyGgiBjecf8GX32uDiwkltlkVi63qob7ATzNY3VylMbMhizZB7SRqbOvk/NbIaAzE5VrW24P/aHeAwQBHEPPxwXb+fIAV9Ez7f+WXVP8G1CIstXRpXz4cpuWrRuISYEfP0S9CuAxV86UQ/Sr8G10ZFEUAl0CKKIzO/pU1i1InwZ+aW972OfvXNr2SXkMRy6G7XzwTMUlXKFF30uYayOwZ25TqM5XMmVXsWd6yFsVmZmZ/gulmK7pobibbv9AjJ0qYPVPS1H+dmRxUUaQUGsacVQPDUoxNJOPUhyVw2gExozn7EHTMRAp5GNS0w+9DcuU5LdNj5xADRrM5gmU+hW/GV2ty0jkVd/RAAS6Jr/CpjlfKHDl3EyyrgzkKB/GE+75IjzPbxgyNyrgw25R25yENq+T5lPExy+iFQic+Sovp2+7chkp9dA3kxjB0OWfwjhTChO3xlwe6ezMzMzMzMzMofAd2jCcfX1ru+2nSX07Tn+QpmZlOaCJAyKMP1+ymmt3V8BtBY1A/KqqqqomKUPtkZKjbVu35ZuKEKeyZmBq17JL9c1L96Y2gU62HQPxUClg7pFIajuXw2o2qngTrd/W/shNabU66c/yFyZqggulfV8SMmWv2JhnkX1adA54hqd/6673SFQ2o2vZJfrtqPYe8qC9qNrugAD+/6lGpxMc3yTJhcLDFQ6PXuLHsSYRvqwoTWnUeLnEjttB0cMmAUjtm7SJIUHNTqM40S55n8TqrTadAkZsh2yVhTeuTFbHZU5GuxqGzdhY6X6K99u+nD/WbKoinL0uzV7fImZKK1mm/MUbhZCdt2AcoGDh5m87iETigJX6Jlamf06FE1gyjICWFz7GWUR4+PYf/U2xoYlo3ikId7hlHXLH9MPONpRY8YKr/55Xz3pw/WO/MBKCDgL4m91hrsBy7vIKzICaN9oLUUO6UtyyCdSDbf5EG/TlcFkE6kLLzCxZx9KycKA08ekBnofN7qea+nz6ynOOowzqrtYQBra/6JUhzs6pLmb/O7fycJbz3SnAGF6jS2EL6HH/wGlORnt4PXtABgNnlq4MO67LosmGDdxT0w69wTNqHrk1nhqkQkj5DzAOOxgt2Xs4VIdyxC1roddrpiwfTW8YWFHJfgg4p2LcfFCOQZ3aFAIrhsokmQ+pOTd4MnDgoXOUYQslazbB4L4Qlj5jRYw5DW2LUqizEVQZLk02toLrsRaZ+brTA6AAr96dIaLW5hAx6AAFepPQ5J/udXtAr3qicA/WZX6gWlNRpYdsLxnhrNezyQqn6np5ypaCLDQKbCm7io542oxcFTaUU+WwS+UPEskUZ0OrX2r5x0Ei+TVH9QJncjQyPi+MKEcNTb9zwTukBbswyODk0QQvfsn/dTVirdHmWe61PupksIjo7hcGKfdRuvxMBFZ2xdauAGLh1IqC1WG64a9uWKWVQ2wyhCrCFm5ju/eo2GUIV463ZMisylhWd09WuB3HtojO+augW3heOA3EKlyq6C4O1aiYcEKDOp9c6xn+g4eKMNZra3tnePKl33V6T/LHkpmY/PIgV4qV2PuhDjj2LI6ax61/QI3lejaJI4wWCNbbjB/Op/unom36uJGLuz+TFyM8rsX7YuTZdebzkSlX85+Rb0w6vTFt9VTdIyU7iDGsQWbUzT/A4DbtTU/idFVwI8jCavcQ9u4AC8L6w3MS2P3z/Hl56IrklPykTdVui3NAhZ00kPoKPvuoa05PGKMc3MiA8L+UZLKiRRuhMRHoQ+MSCmU0RE+nw9rAV+5H75QXbXIAPatzAUXf+v7x/J0g7VWu0SdZdtK2QaW00hlLTGxpT0UgkXodAm4FiFtkSyj4pF6sJrkAgyxPaTzuH2XPVd+l2y+ZG1EERF3ayX47VI4BvhvkWTM4UFjU+GD181cLgtpUQ8WPBPCphrhdnELFXRIp6E7R1XfBTD62l0BUZBsfsUgNaVAJ9SKgzdDHwewI93JBq8bhUX3gsp/5OwluDbSUpnQEcxGBHCUNjAQRhfF+wQcm3McejAvEHjV0ztg858hEfQqANCxBICxSPKZ0ekAsUdFV/D2fixAwiwkd0+ET0Vf8YbYZEStWNrFI1bOp7U5e8efkY3EPr22D5GkdNU4Ub3HNRsNssl+WVoEC/BXjaDJXze9ejofG+ykYfDGVWZJEkpqb3RMr7dSJf6V0S/usU7LnFMYejqIMs9fsKI5kfl0hs/GqaEjrvqsToGwq4zLxLhdOuWhXs/Szep0k0eYb9CwStacXzeVkX2HaosD3EZ5NyI9pJxdklELjoaRYUYz37vr5yvIOEzdp55wO0l6PUvQ565Dro2A3PAE+I6fdpCoQ6uGUj883AYpUF0jhbOPOIWWilontQTM33ftPwo6eyPjoYmRZEL59nEasMc1qB3B++UAKDjJtGnxb+OMEZroX059oD4aOYBmc5aNoZmoZV46ahIqHo+vDtvsudUqhsIgyyDfQF8vf2z6+1AaWehHf/szvBL9LSEzTv9ZD4uN3L9FKIif4PkO5GxAobLV0p+UPSzDxVg+v/YuY+M7rCE5XNYKKC6sP/orIrPtCcdqJpNVflFltH06oJYr4j3rLXikq7RZPeVn2UNXcAfc/3cqJmPQANGaIu6Hr00yKdpdJdFpVFRWDSrHEsYZ/G5TlI6E/eMc2gRJKt59Sl+G1PR/G1KrucNyrVbhiH8262fciCzB6DrGYcAP8dpg9T/ct4rt1aJxb/+1qOeyD8h/K9xNksdChJcr9nav+XJBj+LF9Ul+ghjE7Xg3TIqkDJk4DCtDLfCzYxrqY2htkKa/viv75f2JXbUZdXTfrKTjSJ31BbMyKkRISarg4oSV/+1kXJMppuVh490uzschHIZS3Gh43zQcy1sFHJ2Z+Igi0bvIvXKmWxAJFyZ+sOciPpA/3n49wfvvtcvUUlXBxg/Xd7N7tQxCyxxjbYqAmAKi97MmP9PXo6gw2dtCTHDNJgQAw9CvjClvODIX69EqfNWjI3lZxKnzbMOF8Lrfzl3sbM9Nq/SQQWeEmZg0vp2RbGe/3x7VtTADQE9IBJDi5nunGWIp3GcpxE2LzhOfcxt5mojIOeG9WH37EgtHlbuYCY92AAizlzQ0rj6UuveG+7OK7PmnJkSPZp/031/IQ4p5z3oKKknMGVTyWd1NXzH3tQk8/7B9nt+Wy6RaplQ4+R3m7v4FS4sDNA7pER2x6hF98ine7QhFEOLfLFb97kUpSmqqc5z7I+S157WoId3vBJJOj8XOg0Ld46pucG9hlv8+ipmL0HAa/n6HPPbPfpiT2aWS32g9h1ThLIpood+j9uSmWFTNbm8s9xmiJf9jJH+y7P3DijrLATsIlI5DSFV5FlMqRQgbjjSBl70UZBa84L7VogWtWzrqDBsnhhHb3Bynr8aJx3Lz0cwHkjQ0xpC8puIfI4WqoBtmyHZh4GospcRbnLlq1un4AmK5tQFVt2SJcZP+uwhzkx5PsUmcnpCyAsz6J2uX/i9nARG9wMDZ1ceEHKBwNS21eE7U6zUH+XRmX7HhfrVNRzfqcTfXnwXWm08eAO2CiO3sxpt4Bb9xbB2UG8mI3ifGWfGlflOIXTGColE3/EoOHy2/Us5odrjeC7nBTEnMna46zrPLCTPhyNY8wERanYoDKzbP5O7RtGlBOR9BixO/y1ZQZHEi2X6wV36HLOMafnzgZjIN1tirOSJk6qis84bY4PgGDIfCPK4uhTOrRen6YCEIDf70z/T/dSED9Zc8Evby7DVOsGigR52N9re+XXgGYHLLta6WsSajDPACdaKMAHD4b3ET2bdlPn5HkMNCpYe2A3wDzjSRYYEfvfDLsesbMCTQGNUBwFWBAeDiHcGGe2pVwa7sCyhMZbL32KUu/fvTM632hh2bhqGuTI/GJPOwab1W+LWlA/OUp3tLW9K562xoMHmKUGRVPWvEAfZJraP8hNoch1QI8rFH1HnDISpX/vnk2KGut90k4Vlkjxjwrbm16t/GXBAi/UczlEZK9u63JKEO6wELgigaf2wM2jRTjA0CLsn6GjwBp4kn68XbBC0EF6l0xTk++86p5z3HL0fetIw+zhGTGWBsGnLmk/+E+NmJbOZd7mku9iK50GJ2i3UHYkyAGdYSQnrIlJ6ZAp0kp+dvHXI+zFZFFeLwl8BCbaK4g26QA9DyaPLQ99it18fAR/3sQ7d//gqMYGXnvR/qrQ/w9ZHlElgvKgct1n1hNc4vk/w4pXDaqJdKGyEe/9NT1s57Ge8HZ7ZWl2ISoHuiNyiJpakZQ5Fo3tbLcqIA4Pxft9d9OwIOAe+k1FUCBe8SPXqY8oyE78WdFvdOAvDwkhsgxsFfhOW2G+nhKRKNea7PP1U0l5u9nmKG9afh6+yKtXJBS81SLGL7K/Hd3wkeeuV2A1JvwrYdVBIMk/yiDQJBGStdH38/2wgwTvY62sXWG40W374Mu9Hpxjfo8QPXYRFtig8YJsbXSellU77ui1ypGDVdbuabi6n/xZ8B8cz/uIikcJZPN+r9g3m0s0cojX9REDBCXkIYrz/u1ZmRxL9OTT6pWr5hpkQn2Hdv9ClMa6snWxKak/AT5vJW5CV4B+1zWrvHck3aqo024nm9SWo6lyeV790MhUOAUAnjPdaKTaidffzP3RjZlN5uAf450YTq4/chwA0n0B6KYTgImmPSD+nfPXFpvkvK2DVU/omiZ77uqyY0IfxDp8mO3tYXes+WdtgbhBqqr/q3RJZEqXp0VWUexw0P/vQMrpBf4EhQOsAC9sWY58FJl61POD783i1SSg7m7SSWFE0XAtamg+DqGXSy5Vu3NTL7UtGcSi45h1Lo4kYooR6gOPEhHJ4IfiOQC+THnYIHBZCHrDPKwybd/iABdVpux3TxB510OgsJDJkuUyf+cuIFPEVGE1r6PXlf4YDNfpo8XE1zQBg76hgCBp+cEk7+pi/2mLb9KHLwyQl7H/ZeHDrofQ+NqUJ5sPC1X48xQrmAChUS/N+hKR7gb5YK4q7u+kbbqRwpm/WEu0ZWdEGLQeZ1VwpruGYmlRycR6yFAYkGXhgRuYka2mvTNpBFmGuRRd17vAz2vG7Z9fZJjeiN/HDM+AxqCI1HgixJR3Te70ZvQSNGl5yhnMGhuHxW/nxBaKCPTlf2drXjaFJu5+HH2vxITCVLu83nIckc3UhE1osuvroed1fAT2Yom7P/mrRNK4k0KIhXUFr0DkG/mU/GYpJnF+b92V6oP+Sj4uBfsfBjFBTmV51BYY6uEmg54TL+r17Ff5OaQz9ToeL1J8HdpzDy5q29aKXkk4V4wDUMngDh93vD7fAa9BTuF5IZSLw4AWif10da8/Zrrr3UyzgL0dLdkXxyqmcqe7NQHH7WPY1eSwb3TqTlwDw933SZjm6bBegbxnwbz2sMVeiagjY6oBAWO4atF4jZ5XXWgW/UFzbhjpsaOQYpHFBet9Lf1bZNvBL8fwS6krbvtZbpR+QUQbjleDoGuYn0iYwqLIyb2NFAbeR5UEZ3oD3pUSkRrVITxOMHZV8ckiF9yxwwZr4hjnCUEqnIhd6D0W5wfMxUE9g9CPxS2O46ZAXTETQV/F8BRXrHWfEvML9JYJwhtrSQViT4yYnC3uW5NXBOzrBi5veA4cQkaIKXD0YwKbTp5Y86Ml8OK7B+wUDfR09Nwkljn0O3S4ipiapVHx08jvvJLjAiVbv3g17mht0APHrBM2+hNfSrZsnfRfcG34PJgdRTL+fPN1Z8iV/E+ErknMWN1LHSnzXc+9iqpZHBGCyJCTZ6cQpky6rxP9urtE2G37atRe99vrsffNbOE7zpzx5KvgTTEL8ZMvcA/N/MnnlXLwqANDwl931QNPcJ0aTOKyAHjriFfPvnaJDGd+JqGEs2pNKNoeAxDDuYfu59kd70KvmAasBxWy9T4KCvx7L//5zqUFp5QQzarYmDKonDbjKcLwYIPiC9/lecMas/tEUfXOhdP39ynB0KQAlHTTDtQL7QfkUEXuaCmt58XONb4TYJMNUUw9QechgJKHPMsEQVr5GWTAxCZOe0M65SuFweGJEfIafrMwxnH/w++P1HTeQN9tUOcgfP7D/alZ2h/j4IG32Jd+kcS7dpHr8cxudI4T975vkGntebkBYApwCvXPItlI1TMkLxwzKtbefcNK0NNTW+CVVvw61vswVZBhzBS27mBbgT2Vhdxi8Bq/wXvpQ/EZ7m8imzGCCk3ypufb1bzTqS6XMvQaaUgTHh1o05vuqHf6Ge0V9lmenAtjJctTei9vhtxDwoX5GBYAqd/REyqNwlkBlTGli8lp9Xo53s0J6M186VwbwQpmRH4/WMoKZ9AOpUwZiuRKjA7EBhfAqBEVpY220y2XFjpQzaOI9nlrLBuvdB69FeoAkwvGLeVGh9gMYjge8H2OZhxwpySu6c8syEo7D6wfx8DVj5EAPchWfm6ghxrhf32SKe27Kz5NxXg2Ee5naTM3Gw9aDivuVws+YwZYw1gFoLoJMk0zrF6XQL17b53CPCXCEx7zAn9zFfZpUsmsfTVBQJEOpsB0zNynAxMar1TiKf/QEFfsoqzZ1HqusGcAnEsLzALpG/kg1D3+B8qAbA2JwmaVFnQCzJXJv2OHzBlCi8o7qBkMWmURukkg7zBcQeZ1KMgCXhCG/w+x2uMbWzTt6GNo7wjxIA6+VhR2wsVJjb0gMHeX2QtmiWIb9zK78Mu30B+ngq+dN/JcIPN659I1SHUqI++wbryugF7rNzcG45Z6K3WhBQFzmHVrJvhTEAGo8pBFhjqjaGDKbLASKzfuFW74ozU326OjqMB4v8NBTWNrbcBMNDNhClPGLtzNwj2VIZ22JP/nUZWSPMKe6dgPMNeczq+wPy+hJO8sh7+q+1Wjhw4w2A/l/PfULd36p/0Qf7YUNL73wie5/VjBiM0PiuWu/HIxwaUCYL4xd10dmuvox5GN3iAwGeRzR0nEjGUSl82FipMuMJt4i37qdBTIAhKNWslR58rTyUMArl/577x40EV5T2wPcaUQdncJErd8cBV66eIfuyxVhxW663GU71zFyERbW72kxH31rkToFO0jsgHfglsM23uZY33Dl+73BnS5ulmySle4CezV1qbhk9wBcdEXJBa9KginPGDhgfvWVWdEIhddARkqARm7sFeeJsOyn6S968idy6T1+ZzjUvQXlcLo2ZC4r6Il7nHyV6+4CugIBgiG4xPnGXKQkS0n+J4tP6ic7JZ28m9livATrO5q8mU+qg7c2FJgw+hYO+UwsHMlvFXl5O8be/UrDHmBv/tYWTN47ePLZroS51A0eVsqqBXKscqcUsuWAPHCgJsKK/TepzdphwA1FBRU3sUk6Xs4Fq2ryyiwDikuqflGHFswdl8wq6e4wxvlqukfZ1tWMPTJlnv/VsNo1D9o0sKD2LT/Yc1H2OYMd8vg0B3coRBqUg0qCacO3mLfX030jc4CzWobHQbr+aG6TfxEdZtm88O3mRub0GGiojoVe59vyqPPpIAAAAAAAA=;" vertex="1" parent="7">
                    <mxGeometry x="580" y="50" width="148" height="148" as="geometry"/>
                </mxCell>
                <mxCell id="11" value="&lt;font style=&quot;font-size: 19px;&quot;&gt;Formula&lt;/font&gt;" style="text;strokeColor=none;align=center;fillColor=none;html=1;verticalAlign=middle;whiteSpace=wrap;rounded=0;" vertex="1" parent="7">
                    <mxGeometry x="30" y="90" width="60" height="30" as="geometry"/>
                </mxCell>
                <mxCell id="12" value="&lt;span style=&quot;color: rgb(63, 63, 63); scrollbar-color: rgb(226, 226, 226) rgb(251, 251, 251); text-align: start; background-color: transparent;&quot;&gt;Volume&amp;nbsp; = (4/3) *&amp;nbsp;&lt;/span&gt;&lt;span style=&quot;scrollbar-color: rgb(226, 226, 226) rgb(251, 251, 251); text-align: start; font-family: &amp;quot;Google Sans&amp;quot;, Arial, sans-serif; font-size: 16px; background-color: rgb(255, 255, 255); color: rgb(31, 31, 31);&quot;&gt;π *r&lt;/span&gt;&lt;span style=&quot;color: rgb(63, 63, 63); scrollbar-color: rgb(226, 226, 226) rgb(251, 251, 251); text-align: start; background-color: transparent; font-size: 16px;&quot;&gt;&lt;font style=&quot;scrollbar-color: rgb(226, 226, 226) rgb(251, 251, 251);&quot; face=&quot;Google Sans, Arial, sans-serif&quot;&gt;³&lt;/font&gt;&lt;/span&gt;" style="text;strokeColor=none;align=center;fillColor=none;html=1;verticalAlign=middle;whiteSpace=wrap;rounded=0;" vertex="1" parent="7">
                    <mxGeometry y="130" width="180" height="30" as="geometry"/>
                </mxCell>
                <mxCell id="13" value="The Radius is:&amp;nbsp;" style="text;strokeColor=none;align=center;fillColor=none;html=1;verticalAlign=middle;whiteSpace=wrap;rounded=0;" vertex="1" parent="7">
                    <mxGeometry x="10" y="160" width="110" height="30" as="geometry"/>
                </mxCell>
                <mxCell id="14" value="radius = xx mm&amp;nbsp;" style="text;strokeColor=none;align=center;fillColor=none;html=1;verticalAlign=middle;whiteSpace=wrap;rounded=0;" vertex="1" parent="7">
                    <mxGeometry x="10" y="190" width="120" height="30" as="geometry"/>
                </mxCell>
                <mxCell id="15" value="Volume is: xxx mm&lt;span style=&quot;color: rgb(63, 63, 63); font-family: &amp;quot;Google Sans&amp;quot;, Arial, sans-serif; font-size: 16px; text-align: start;&quot;&gt;³&lt;/span&gt;&amp;nbsp;" style="text;strokeColor=none;align=center;fillColor=none;html=1;verticalAlign=middle;whiteSpace=wrap;rounded=0;" vertex="1" parent="7">
                    <mxGeometry x="10" y="225" width="140" height="30" as="geometry"/>
                </mxCell>
            </root>
        </mxGraphModel>
    </diagram>
</mxfile>